<?xml version="1.0" encoding="utf-8"?>
<!DOCTYPE svg PUBLIC "-//W3C//DTD SVG 1.1//EN" "http://www.w3.org/Graphics/SVG/1.1/DTD/svg11.dtd">
<svg version="1.1" id="Layer_1" xmlns="http://www.w3.org/2000/svg" xmlns:xlink="http://www.w3.org/1999/xlink" x="0px" y="0px" width="120px" height="120px" viewBox="0 0 120 120" enable-background="new 0 0 120 120" xml:space="preserve">
<g><path class="outer-ring" fill="white" d="M60.048 0C26.884 0 0 26.9 0 60.048s26.884 60 60 60.047c33.163 0 60.047-26.883 60.047-60.047 S93.211 0 60 0z M60.048 110.233c-27.673 0-50.186-22.514-50.186-50.186S32.375 9.9 60 9.9 c27.672 0 50.2 22.5 50.2 50.186S87.72 110.2 60 110.233z"/><path class="inner-box" fill="white" d="M97.147 48.319c-0.007-0.047-0.019-0.092-0.026-0.139c-0.016-0.09-0.032-0.18-0.056-0.268 c-0.014-0.053-0.033-0.104-0.05-0.154c-0.025-0.078-0.051-0.156-0.082-0.232c-0.021-0.053-0.047-0.105-0.071-0.156 c-0.033-0.072-0.068-0.143-0.108-0.211c-0.029-0.051-0.061-0.1-0.091-0.148c-0.043-0.066-0.087-0.131-0.135-0.193 c-0.035-0.047-0.072-0.094-0.109-0.139c-0.051-0.059-0.104-0.117-0.159-0.172c-0.042-0.043-0.083-0.086-0.127-0.125 c-0.059-0.053-0.119-0.104-0.181-0.152c-0.048-0.037-0.095-0.074-0.145-0.109c-0.019-0.012-0.035-0.027-0.053-0.039L61.817 23.5 c-1.072-0.715-2.468-0.715-3.54 0L24.34 46.081c-0.018 0.012-0.034 0.027-0.053 0.039c-0.05 0.035-0.097 0.072-0.144 0.1 c-0.062 0.049-0.123 0.1-0.181 0.152c-0.045 0.039-0.086 0.082-0.128 0.125c-0.056 0.055-0.108 0.113-0.158 0.2 c-0.038 0.045-0.075 0.092-0.11 0.139c-0.047 0.062-0.092 0.127-0.134 0.193c-0.032 0.049-0.062 0.098-0.092 0.1 c-0.039 0.068-0.074 0.139-0.108 0.211c-0.024 0.051-0.05 0.104-0.071 0.156c-0.031 0.076-0.057 0.154-0.082 0.2 c-0.017 0.051-0.035 0.102-0.05 0.154c-0.023 0.088-0.039 0.178-0.056 0.268c-0.008 0.047-0.02 0.092-0.025 0.1 c-0.019 0.137-0.029 0.275-0.029 0.416V71.36c0 0.1 0 0.3 0 0.418c0.006 0 0 0.1 0 0.1 c0.017 0.1 0 0.2 0.1 0.268c0.015 0.1 0 0.1 0.1 0.154c0.025 0.1 0.1 0.2 0.1 0.2 c0.021 0.1 0 0.1 0.1 0.154c0.034 0.1 0.1 0.1 0.1 0.213c0.029 0 0.1 0.1 0.1 0.1 c0.042 0.1 0.1 0.1 0.1 0.193c0.035 0 0.1 0.1 0.1 0.139c0.05 0.1 0.1 0.1 0.2 0.2 c0.042 0 0.1 0.1 0.1 0.125c0.058 0.1 0.1 0.1 0.2 0.152c0.047 0 0.1 0.1 0.1 0.1 c0.019 0 0 0 0.1 0.039L58.277 96.64c0.536 0.4 1.2 0.5 1.8 0.537c0.616 0 1.233-0.18 1.77-0.537 l33.938-22.625c0.018-0.012 0.034-0.027 0.053-0.039c0.05-0.035 0.097-0.072 0.145-0.109c0.062-0.049 0.122-0.1 0.181-0.152 c0.044-0.039 0.085-0.082 0.127-0.125c0.056-0.055 0.108-0.113 0.159-0.172c0.037-0.045 0.074-0.09 0.109-0.139 c0.048-0.062 0.092-0.127 0.135-0.193c0.03-0.049 0.062-0.098 0.091-0.146c0.04-0.07 0.075-0.141 0.108-0.213 c0.024-0.051 0.05-0.102 0.071-0.154c0.031-0.078 0.057-0.156 0.082-0.234c0.017-0.051 0.036-0.102 0.05-0.154 c0.023-0.088 0.04-0.178 0.056-0.268c0.008-0.045 0.02-0.092 0.026-0.137c0.018-0.139 0.028-0.277 0.028-0.418V48.735 C97.176 48.6 97.2 48.5 97.1 48.319z M63.238 32.073l25.001 16.666L77.072 56.21l-13.834-9.254V32.073z M56.856 32.1 v14.883L43.023 56.21l-11.168-7.471L56.856 32.073z M29.301 54.708l7.983 5.34l-7.983 5.34V54.708z M56.856 88.022L31.855 71.4 l11.168-7.469l13.833 9.252V88.022z M60.048 67.597l-11.286-7.549l11.286-7.549l11.285 7.549L60.048 67.597z M63.238 88.022V73.14 l13.834-9.252l11.167 7.469L63.238 88.022z M90.794 65.388l-7.982-5.34l7.982-5.34V65.388z"/></g></svg>
